<svg width="81" height="26" viewBox="0 0 81 26" fill="none" xmlns="http://www.w3.org/2000/svg">
<path fill-rule="evenodd" clip-rule="evenodd" d="M49.666 19.5827C44.994 23.3405 38.2202 25.3392 32.3877 25.3392C24.2128 25.3392 16.8518 22.046 11.2806 16.5637C10.8433 16.1332 11.2335 15.5449 11.7592 15.8785C17.7696 19.6904 25.2017 21.986 32.8783 21.986C38.0568 21.986 43.7493 20.8147 48.987 18.3935C49.7769 18.028 50.4392 18.9609 49.666 19.5827Z" fill="#808991"/>
<path fill-rule="evenodd" clip-rule="evenodd" d="M51.898 17.7913C51.2857 17.0618 47.852 17.4455 46.3099 17.6172C45.8426 17.6694 45.7701 17.29 46.1913 17.0145C48.9302 15.224 53.418 15.7412 53.9395 16.3401C54.4655 16.945 53.8022 21.1328 51.2351 23.1313C50.8401 23.4388 50.4649 23.275 50.6398 22.8687C51.2172 21.5265 52.5104 18.5208 51.898 17.7913Z" fill="#808991"/>
<path fill-rule="evenodd" clip-rule="evenodd" d="M45.7172 3.7805V1.91513C45.7184 1.63122 45.9367 1.44194 46.1994 1.44252L54.7243 1.44165C54.9967 1.44165 55.2155 1.63641 55.2161 1.91282L55.2155 3.51274C55.2135 3.78107 54.9831 4.13135 54.5736 4.68707L50.1579 10.8706C51.7971 10.8331 53.531 11.0735 55.0205 11.8946C55.3562 12.0796 55.4462 12.3542 55.4727 12.6229V14.6132C55.4727 14.8876 55.1667 15.205 54.8452 15.0399C52.221 13.6919 48.7391 13.5444 45.8379 15.0561C45.5413 15.211 45.231 14.8982 45.231 14.6238V12.7317C45.231 12.429 45.2368 11.9111 45.5481 11.4494L50.6642 4.25109L46.2097 4.25023C45.9376 4.25023 45.719 4.0598 45.7172 3.7805Z" fill="#808991"/>
<path fill-rule="evenodd" clip-rule="evenodd" d="M16.6905 15.0972H14.2579C14.0264 15.082 13.8412 14.9073 13.8228 14.6847L13.8244 2.15682C13.8244 1.90625 14.0344 1.70579 14.2938 1.70579L16.5594 1.70524C16.7964 1.71742 16.9869 1.89739 17.0018 2.12581V3.76161H17.0473C17.6378 2.17981 18.7505 1.44165 20.2492 1.44165C21.7708 1.44165 22.7245 2.17981 23.4059 3.76161C23.9961 2.17981 25.3359 1.44165 26.7667 1.44165C27.7886 1.44165 28.9012 1.86333 29.5826 2.81247C30.3547 3.86682 30.196 5.39601 30.196 6.74053L30.1941 14.6462C30.1941 14.8965 29.9838 15.0972 29.725 15.0972H27.2949C27.0507 15.0815 26.8581 14.8874 26.8581 14.6473L26.8575 8.00586C26.8575 7.47869 26.903 6.16047 26.7893 5.6596C26.6078 4.81596 26.0627 4.57867 25.3588 4.57867C24.7685 4.57867 24.1551 4.97405 23.9053 5.607C23.6556 6.23966 23.6785 7.29401 23.6785 8.00586V14.6462C23.6785 14.8965 23.4682 15.0972 23.2091 15.0972H20.7793C20.5351 15.0815 20.3425 14.8874 20.3425 14.6473L20.34 8.00586C20.34 6.60874 20.5671 4.55237 18.8413 4.55237C17.0925 4.55237 17.1607 6.55585 17.1607 8.00586L17.1599 14.6462C17.1602 14.8965 16.9499 15.0972 16.6905 15.0972Z" fill="#808991"/>
<path fill-rule="evenodd" clip-rule="evenodd" d="M62.9607 3.39368C61.1847 3.39368 61.0724 5.91893 61.0724 7.49386C61.0724 9.06908 61.05 12.4366 62.9383 12.4366C64.8042 12.4366 64.8938 9.72079 64.8938 8.06428C64.8938 6.9782 64.849 5.67479 64.5343 4.64262C64.2642 3.74649 63.7247 3.39368 62.9607 3.39368ZM62.9384 0.759277C66.5126 0.759277 68.4455 3.96361 68.4455 8.03699C68.4455 11.9743 66.3105 15.0977 62.9384 15.0977C59.4317 15.0977 57.521 11.893 57.521 7.90123C57.521 3.88205 59.4541 0.759277 62.9384 0.759277Z" fill="#808991"/>
<path fill-rule="evenodd" clip-rule="evenodd" d="M72.7467 15.0972H70.2625C70.0127 15.0815 69.815 14.8874 69.815 14.6473L69.811 2.11474C69.832 1.88576 70.0387 1.70579 70.2899 1.70579L72.603 1.70524C72.8206 1.71604 73.0002 1.86167 73.046 2.05604V3.97231H73.0929C73.7913 2.25872 74.7685 1.44165 76.4911 1.44165C77.6081 1.44165 78.7024 1.83703 79.4008 2.91796C80.0527 3.9197 80.0527 5.607 80.0527 6.81944V14.7024C80.0244 14.9248 79.8211 15.0972 79.5747 15.0972H77.0749C76.8441 15.0826 76.658 14.9167 76.6308 14.7024V7.90037C76.6308 6.52955 76.7937 4.52607 75.0712 4.52607C74.4659 4.52607 73.9073 4.92145 73.6284 5.52781C73.2793 6.29227 73.2324 7.05673 73.2324 7.90037V14.6462C73.2279 14.8965 73.0123 15.0972 72.7467 15.0972Z" fill="#808991"/>
<path fill-rule="evenodd" clip-rule="evenodd" d="M42.4232 14.7624C42.2592 14.9094 42.0229 14.9192 41.8381 14.82C41.0157 14.1357 40.8682 13.8194 40.4188 13.1683C39.0593 14.5543 38.0964 14.9698 36.336 14.9698C34.2513 14.9698 32.6294 13.6822 32.6294 11.1069C32.6294 9.09476 33.7181 7.72671 35.2703 7.0559C36.6138 6.4655 38.4905 6.35838 39.9266 6.19729V5.87538C39.9266 5.28525 39.973 4.58773 39.6255 4.07802C39.3241 3.622 38.7452 3.4342 38.2354 3.4342C37.2911 3.4342 36.4515 3.91861 36.245 4.92258C36.2023 5.14581 36.0394 5.36679 35.815 5.37803L33.4148 5.11825C33.2122 5.07243 32.987 4.90964 33.0454 4.6001C33.5971 1.68548 36.2265 0.804932 38.5831 0.804932C39.7876 0.804932 41.3628 1.12684 42.3125 2.03916C43.5173 3.16598 43.4013 4.66814 43.4013 6.30468V10.1662C43.4013 11.3276 43.8836 11.8373 44.3361 12.4632C44.4942 12.6886 44.5299 12.9568 44.3279 13.1216C43.822 13.5458 42.9235 14.3274 42.4288 14.7677L42.4232 14.7624ZM39.9267 8.71902C39.9267 9.68503 39.9497 10.4897 39.4632 11.3483C39.0694 12.0458 38.4442 12.4748 37.749 12.4748C36.7993 12.4748 36.2434 11.7503 36.2434 10.6775C36.2434 8.56664 38.1352 8.1826 39.9267 8.1826V8.71902Z" fill="#808991"/>
<path fill-rule="evenodd" clip-rule="evenodd" d="M9.96101 14.7624C9.79697 14.9094 9.56046 14.9192 9.37591 14.82C8.55318 14.1357 8.406 13.8194 7.95629 13.1683C6.59734 14.5543 5.63445 14.9698 3.87383 14.9698C1.78878 14.9698 0.16748 13.6822 0.16748 11.1069C0.16748 9.09476 1.25621 7.72671 2.80813 7.0559C4.15191 6.4655 6.02826 6.35838 7.46445 6.19729V5.87538C7.46445 5.28525 7.5108 4.58773 7.16334 4.07802C6.86222 3.622 6.28275 3.4342 5.77349 3.4342C4.82914 3.4342 3.98899 3.91861 3.7831 4.92258C3.74013 5.14581 3.57749 5.36679 3.35278 5.37803L0.95285 5.11825C0.750047 5.07243 0.524492 4.90964 0.583198 4.6001C1.13459 1.68548 3.76428 0.804932 6.12067 0.804932C7.32541 0.804932 8.90064 1.12684 9.85062 2.03916C11.0551 3.16598 10.9393 4.66814 10.9393 6.30468V10.1662C10.9393 11.3276 11.4211 11.8373 11.8739 12.4632C12.0317 12.6886 12.0674 12.9568 11.8657 13.1216C11.3601 13.5458 10.461 14.3274 9.96691 14.7677L9.96101 14.7624ZM7.46462 8.71902C7.46462 9.68503 7.48793 10.4897 7.00115 11.3483C6.60762 12.0458 5.98208 12.4748 5.28715 12.4748C4.33746 12.4748 3.7813 11.7503 3.7813 10.6775C3.7813 8.56664 5.67338 8.1826 7.46462 8.1826V8.71902Z" fill="#808991"/>
</svg>
