<svg width="120" height="16" viewBox="0 0 120 16" fill="none" xmlns="http://www.w3.org/2000/svg">
<path fill-rule="evenodd" clip-rule="evenodd" d="M7.07686 0.837156C5.28759 3.59045 5.07131 7.06625 6.52632 10.0148L8.90545 14.7403C8.9841 14.877 9.12174 14.9747 9.27904 14.9747H14.2143C14.4502 14.9747 14.6468 14.7794 14.6468 14.5451C14.6468 14.4865 14.6272 14.4084 14.6075 14.3498C14.6075 14.3498 7.96166 1.14959 7.80436 0.817629C7.70605 0.62236 7.47011 0.544252 7.27348 0.641886C7.17517 0.700467 7.11619 0.759048 7.07686 0.837156ZM4.41272 7.56271C4.27923 7.39425 4.03131 7.35682 3.85968 7.48784C3.80247 7.52527 3.76432 7.58142 3.74525 7.63757L0.312561 14.3945C0.217208 14.6004 0.29349 14.8437 0.503266 14.9373C0.560478 14.956 0.617689 14.9747 0.693971 14.9747H5.48067C5.63324 14.9747 5.7858 14.8999 5.84301 14.7501C6.85375 12.6538 6.22442 9.47186 4.41272 7.56271ZM75.1531 11.8574L75.153 11.8458L75.1725 11.8572C75.1725 14.165 73.8589 15.731 70.5944 15.731C68.2764 15.731 67.0401 15.1747 66.0936 14.6801V11.6923C67.4844 12.5372 69.0491 12.9905 70.633 13.0111C71.9466 13.0111 72.3329 12.5784 72.3329 11.9396C72.3329 11.2802 71.9466 10.9505 70.0729 10.5384C66.963 9.88314 66.1615 8.43419 66.1517 6.61628L75.1531 11.8574ZM66.1517 6.61628L66.0936 6.58243C66.0936 4.27462 67.6582 2.87345 70.6909 2.87345C72.0238 2.83224 73.3373 3.12072 74.5542 3.71828V6.60304C73.2987 5.98488 71.9658 5.55216 70.6136 5.55216C69.4933 5.55216 68.8945 5.86124 68.8945 6.58243C68.8945 7.13878 69.3194 7.55089 71 7.94239C74.0659 8.64174 75.1492 9.6696 75.153 11.8458L66.1516 6.58218L66.1517 6.61628ZM109.218 2.86959V14.9747H111.806V5.7508L112.889 8.19183L116.56 14.9747H119.81V2.86959H117.222V10.6929L116.239 8.41192L113.29 2.86959H109.218ZM92.5733 2.86959H89.547V14.9747H92.5733V2.86959ZM87.2774 11.8574C87.2774 9.67325 86.1105 8.64298 82.7973 7.94239C80.9844 7.55089 80.526 7.13878 80.526 6.58243C80.526 5.86124 81.1719 5.55216 82.3805 5.55216C83.8392 5.55216 85.277 5.98488 86.6314 6.60304V3.71828C85.3186 3.12072 83.9017 2.83224 82.4639 2.87345C79.1924 2.87345 77.5045 4.27462 77.5045 6.58243C77.5045 8.41632 78.3589 9.8793 81.7346 10.5387C83.7558 10.9508 84.1726 11.2805 84.1726 11.9398C84.1726 12.5786 83.7558 13.0113 82.3389 13.0113C80.6302 12.9907 78.9423 12.5374 77.442 11.6926V14.6804C78.463 15.1749 79.7967 15.7313 82.2972 15.7313C85.8813 15.7106 87.2774 14.1652 87.2774 11.8574ZM44.153 14.9747V2.86959H47.0393V12.3536H50.9621L50.0475 14.9747H44.153ZM32.8044 2.86959V5.49069H35.8631V14.9747H38.6296V5.49069H41.8832V2.86959H32.8044ZM28.6035 2.86959H24.9003L20.6993 14.9747H23.9048L24.5021 12.9338C25.9754 13.374 27.5284 13.374 29.0017 12.9338L29.599 14.9747H32.8044L28.6035 2.86959ZM26.7519 10.7529C26.2342 10.7529 25.7166 10.6728 25.1989 10.5328L26.7519 5.25054L28.3048 10.5328C27.7872 10.6928 27.2695 10.7529 26.7519 10.7529ZM55.9195 2.86959H59.6227L63.8237 14.9747H60.6182L60.0209 12.9338C58.5476 13.374 56.9947 13.374 55.5213 12.9338L54.924 14.9747H51.7186L55.9195 2.86959ZM56.2183 10.5328C56.736 10.6728 57.2537 10.7529 57.7713 10.7529C58.289 10.7529 58.8066 10.6928 59.3243 10.5328L57.7713 5.25054L56.2183 10.5328ZM102.747 2.86959H99.044L94.8431 14.9747H98.0485L98.6458 12.9338C100.119 13.374 101.672 13.374 103.145 12.9338L103.743 14.9747H106.948L102.747 2.86959ZM100.896 10.7529C100.378 10.7529 99.8604 10.6728 99.3428 10.5328L100.896 5.25054L102.449 10.5328C101.931 10.6928 101.413 10.7529 100.896 10.7529Z" fill="#808991"/>
</svg>
