<svg width="84" height="18" viewBox="0 0 84 18" fill="none" xmlns="http://www.w3.org/2000/svg">
<path fill-rule="evenodd" clip-rule="evenodd" d="M11.4298 0.759277C13.9816 0.759277 16.2893 1.35905 17.9483 2.3282C19.252 3.09237 20.3301 4.0994 21.0819 5.2681L14.1628 9.1664L17.8381 3.42737C16.7733 2.77615 15.5129 2.40045 14.1628 2.40045C10.3326 2.40045 7.22843 5.42807 7.22843 9.1664C7.22843 12.9045 10.3326 15.9351 14.1628 15.9351C16.5159 15.9351 18.595 14.7896 19.8503 13.0412L20.1201 14.0279C20.0305 14.1395 19.9357 14.247 19.8379 14.3535C18.0512 16.2878 14.9063 17.5719 11.3268 17.5719C7.74682 17.5719 4.60096 16.2888 2.81543 14.3535C1.49691 12.9236 0.711914 11.124 0.711914 9.1663C0.711914 7.21002 1.49691 5.41169 2.81543 3.98284C4.59632 2.04997 7.78976 0.759277 11.4298 0.759277ZM30.2394 3.63037C32.1373 3.63037 33.7314 4.88589 34.1979 6.59408L37.1018 17.1648H32.058L31.4206 14.8406C30.2353 16.4353 28.3137 17.4733 26.1409 17.4733C23.1227 17.4733 20.679 15.4968 20.679 13.0621C20.679 10.6276 23.1227 8.65406 26.1409 8.65406C27.6609 8.65406 29.049 9.19867 30.1148 10.0938L29.0161 6.08976H22.5861L28.8379 3.87152C29.2756 3.71618 29.7472 3.63037 30.2394 3.63037ZM51.464 6.09012C51.464 4.7319 50.3344 3.63253 48.9421 3.63253L48.7534 3.6393C48.4421 3.66173 48.1471 3.73926 47.8794 3.86193L43.8653 5.68729C43.6666 4.52129 42.6286 3.63253 41.3764 3.63253C40.9974 3.63253 40.636 3.71473 40.3106 3.86193L35.4099 6.09012H38.8555V17.1652H43.8993V7.32223C43.8993 6.64307 44.4626 6.09022 45.1608 6.09022C45.8549 6.09022 46.4223 6.64307 46.4223 7.32223V17.1652H51.464V6.09012ZM28.2437 10.6025C26.8514 10.6025 25.7228 11.7038 25.7228 13.0623C25.7228 14.4228 26.8514 15.5231 28.2437 15.5231C29.6359 15.5231 30.7656 14.4228 30.7656 13.0623C30.7656 11.7038 29.6359 10.6025 28.2437 10.6025ZM67.8539 10.6026C67.8539 6.7541 64.6564 3.63253 60.7124 3.63253C56.7653 3.63253 53.5658 6.754 53.5658 10.6026C53.5658 14.4521 56.7653 17.5721 60.7124 17.5721C64.6564 17.5721 67.8539 14.4521 67.8539 10.6026ZM80.5729 3.63253C81.9631 3.63253 83.0938 4.7319 83.0938 6.09012V17.1652H78.0479V7.32223C78.0479 6.64307 77.4846 6.09022 76.7885 6.09022C76.0903 6.09022 75.526 6.64307 75.526 7.32223V17.1652H70.4832V6.09012H67.0386L71.9372 3.86193C72.2636 3.71473 72.6251 3.63253 73.004 3.63253C74.2562 3.63253 75.2943 4.52129 75.492 5.68729L79.5019 3.86193C79.7739 3.73926 80.071 3.66173 80.3836 3.6393L80.5729 3.63253ZM57.9639 6.54423C57.7384 5.7242 58.2399 4.88065 59.0791 4.6611C59.9194 4.44064 60.7834 4.92748 61.0079 5.74761L63.4567 14.6619C63.6822 15.4818 63.1828 16.3248 62.3425 16.5469C61.5022 16.764 60.6403 16.2776 60.4137 15.4567L57.9639 6.54423Z" fill="#808991"/>
</svg>
