<svg width="82" height="28" viewBox="0 0 82 28" fill="none" xmlns="http://www.w3.org/2000/svg">
<rect width="82" height="28" fill="#EDEDED"/>
<g id="Home">
<g id="Frame 17">
<rect width="1367" height="1298.34" transform="translate(-456 -1168)" fill="white"/>
<g id="Testimonial 2">
<rect width="1367" height="744.339" transform="translate(-456 -614)" fill="#F5F8F5"/>
<g id="Clients 1">
<rect x="-311" y="-34.2844" width="1077" height="99.6239" rx="15.0649" fill="white"/>
<g id="Logos">
<g id="Google">
<path id="Shape" fill-rule="evenodd" clip-rule="evenodd" d="M10.632 10.2713V13.1231L17.448 13.1201C17.2389 14.693 16.7085 15.8447 15.9024 16.6508C14.9083 17.6449 13.3566 18.739 10.632 18.739C6.43152 18.739 3.14627 15.3537 3.14627 11.1532C3.14627 6.95269 6.43152 3.56744 10.632 3.56744C12.899 3.56744 14.5537 4.45845 15.7751 5.60405L17.7874 3.59168C16.0842 1.96421 13.8173 0.715576 10.6351 0.715576C4.88285 0.715576 0.0458984 5.40099 0.0458984 11.1532C0.0458984 16.9054 4.88285 21.5908 10.6351 21.5908C13.7385 21.5908 16.0812 20.5725 17.9147 18.6632L18.022 18.5536C19.8221 16.6765 20.3847 14.0912 20.3847 11.9927C20.3847 11.3563 20.3362 10.7683 20.2423 10.2713H10.632ZM68.1269 1.48215V21.1815H65.2478V1.48215H68.1269ZM28.2735 21.5939C31.9891 21.5939 35.0168 18.742 35.0168 14.8719C35.0168 10.9744 31.9891 8.14985 28.2735 8.14985C24.5579 8.14985 21.5303 10.9744 21.5303 14.8719C21.5303 18.742 24.5579 21.5939 28.2735 21.5939ZM28.2735 10.7984C30.3102 10.7984 32.0649 12.4532 32.0649 14.8716C32.0649 17.2628 30.3102 18.9449 28.2735 18.9449C26.2369 18.9449 24.4822 17.2659 24.4822 14.8716C24.4822 12.4532 26.2369 10.7984 28.2735 10.7984ZM49.564 14.8719C49.564 18.742 46.5363 21.5939 42.8207 21.5939C39.1051 21.5939 36.0775 18.742 36.0775 14.8719C36.0775 10.9775 39.1051 8.14985 42.8207 8.14985C46.5363 8.14985 49.564 10.9744 49.564 14.8719ZM42.8207 10.7984C44.8573 10.7984 46.6121 12.4532 46.6121 14.8716C46.6121 17.2628 44.8573 18.9449 42.8207 18.9449C40.7841 18.9449 39.0294 17.2659 39.0294 14.8716C39.0294 12.4532 40.7841 10.7984 42.8207 10.7984ZM63.505 8.55899V20.6241C63.505 25.5883 60.5774 27.6158 57.1164 27.6158C53.8584 27.6158 51.8975 25.4368 51.1581 23.6548L53.7281 22.5849C54.1857 23.679 55.3071 24.9701 57.1133 24.9701C59.3288 24.9701 60.7016 23.6032 60.7016 21.0302V20.0634H60.5986C59.9379 20.8787 58.665 21.5909 57.0588 21.5909C53.6978 21.5909 50.6186 18.6632 50.6186 14.8961C50.6186 11.1017 53.6978 8.14985 57.0588 8.14985C58.662 8.14985 59.9349 8.86206 60.5986 9.65306H60.7016V8.55899H63.505ZM57.3225 10.7984C59.3318 10.7984 60.9108 12.5289 60.9108 14.8959C60.9108 17.2386 59.3318 18.9449 57.3225 18.9449C55.2858 18.9449 53.5796 17.2386 53.5796 14.8959C53.5796 12.5289 55.2858 10.7984 57.3225 10.7984ZM81.6376 18.6113L79.3464 17.0838C78.5827 18.2052 77.5402 18.9447 76.0369 18.9447C74.5368 18.9447 73.4669 18.2567 72.779 16.9081L81.7649 13.1864L81.4588 12.4227C80.9012 10.9225 79.1949 8.14639 75.7066 8.14639C72.2426 8.14639 69.3664 10.871 69.3664 14.8684C69.3664 18.6386 72.2183 21.5904 76.0369 21.5904C79.0184 21.5904 80.7837 19.8232 81.564 18.7178L81.6376 18.6113ZM72.2939 14.6654L78.3007 12.1711C77.9704 11.3316 76.9763 10.7467 75.8065 10.7467C74.3284 10.7467 72.2795 12.0324 72.292 14.5517L72.2939 14.6654Z" fill="#808991"/>
</g>
</g>
</g>
</g>
</g>
</g>
</svg>
