<svg width="110" height="27" viewBox="0 0 110 27" fill="none" xmlns="http://www.w3.org/2000/svg">
<path fill-rule="evenodd" clip-rule="evenodd" d="M98.7369 9.23147C99.354 9.23084 99.8643 8.91709 99.9331 8.51235L100.545 1.76918C100.545 1.10319 99.744 0.556152 98.7362 0.556152C97.7309 0.556152 96.9301 1.10319 96.9301 1.76918L97.5412 8.51235C97.6081 8.91709 98.1185 9.23084 98.7369 9.23147ZM0.778809 7.06267C0.778809 7.06267 3.46158 17.9953 3.88989 19.7699C4.38959 21.8413 5.29015 22.6027 7.88689 22.0901L9.56172 15.3117C9.98698 13.6268 10.2713 12.4273 10.544 10.7146H10.5922C10.7589 12.2251 10.9889 13.3218 11.2772 14.6968L11.2772 14.6972C11.3192 14.8972 11.3624 15.1032 11.4068 15.3172C11.4068 15.3172 12.0883 18.3939 12.4379 20.0102C12.7887 21.6253 13.7625 22.6446 16.3056 22.0901L20.2983 7.06267H17.0749L15.7119 13.5595C15.6121 14.0729 15.5151 14.556 15.4215 15.022L15.4214 15.0221L15.4214 15.0222C15.1703 16.2719 14.944 17.3986 14.7564 18.659H14.7113C14.4916 17.0483 14.2174 15.6976 13.8752 14.0112L13.8752 14.0112L13.8089 13.6845L12.3903 7.06267H9.0309L7.5141 13.517C7.40305 14.0234 7.29388 14.5047 7.1886 14.9687L7.18859 14.9687C6.88607 16.3023 6.61572 17.4939 6.42562 18.733H6.37986C6.1175 17.1598 5.76789 15.1691 5.39144 13.2707C5.39144 13.2707 4.48844 8.65472 4.17238 7.06267H0.778809ZM62.5751 17.7784C62.5751 17.9952 62.5548 18.2202 62.4982 18.4149C62.2591 19.2289 61.4372 19.9185 60.4112 19.9185C59.5567 19.9185 58.8743 19.4179 58.8743 18.3618C58.8743 16.7463 60.6054 16.3 62.5751 16.3108V17.7784ZM65.6636 14.964C65.6636 12.2987 64.5558 9.95441 60.8151 9.95441C58.8952 9.95441 57.3694 10.5087 56.5377 11.0023L57.1463 13.1443C57.9067 12.6507 59.119 12.2424 60.2655 12.2424C62.1638 12.238 62.4743 13.3478 62.4743 14.0589V14.227C58.3364 14.2201 55.7225 15.6927 55.7225 18.6936C55.7225 20.5266 57.0547 22.2445 59.3686 22.2445C60.7936 22.2445 61.9837 21.6598 62.6968 20.7244H62.7687C62.7687 20.7244 63.2403 22.7551 65.8437 21.9796C65.7085 21.1333 65.6636 20.2301 65.6636 19.1456V14.964ZM26.3495 18.4149C26.4085 18.2202 26.4263 17.9952 26.4263 17.7784V16.3108C24.4574 16.3 22.7276 16.7463 22.7276 18.3618C22.7276 19.4179 23.4075 19.9185 24.2638 19.9185C25.2897 19.9185 26.1104 19.2289 26.3495 18.4149ZM24.667 9.95441C28.4075 9.95441 29.5146 12.2987 29.5146 14.964V19.1456C29.5146 20.2301 29.5588 21.1333 29.6965 21.9796C27.0914 22.7551 26.6181 20.7244 26.6181 20.7244H26.5486C25.8349 21.6598 24.6436 22.2445 23.2199 22.2445C20.9062 22.2445 19.5753 20.5266 19.5753 18.6936C19.5753 15.6927 22.1885 14.2201 26.3267 14.227V14.0589C26.3267 13.3478 26.0163 12.238 24.1174 12.2424C22.9698 12.2424 21.7588 12.6507 20.9984 13.1443L20.3886 11.0023C21.2215 10.5087 22.7454 9.95441 24.667 9.95441ZM34.7571 19.0206V7.06267H31.8653V22.2445H34.7571V19.0206ZM75.9649 18.0776V7.06267H79.0366V10.5931H81.7484V13.4502H79.0366V17.6623C79.0366 19.0263 79.3922 19.687 80.4526 19.687C80.9525 19.687 81.3192 19.6261 81.6363 19.5501L81.6766 21.9196C81.251 22.0745 80.3442 22.2445 79.4213 22.2445C78.3385 22.2445 77.4348 21.8762 76.8872 21.309C76.2579 20.6586 75.9649 19.5935 75.9649 18.0776ZM68.0125 10.9326V22.2443H71.109V16.4517C71.109 16.1392 71.1287 15.8662 71.1765 15.6169C71.407 14.4034 72.3175 13.6289 73.6269 13.6289C73.9798 13.6289 74.2346 13.6665 74.5053 13.7065L74.519 13.7085V10.7472C74.2873 10.6985 74.1285 10.6772 73.8377 10.6772C72.6806 10.6772 71.3658 11.436 70.814 13.0659H70.7293V10.9326H68.0125ZM36.926 22.2443V10.9326H39.9243V12.4695H39.9711C40.5084 11.6463 41.3913 10.6772 43.3568 10.6772C44.8875 10.6772 46.0614 11.481 46.5613 12.6999H46.6075C47.038 12.0859 47.5297 11.6202 48.0801 11.2913C48.7336 10.9004 49.4571 10.6772 50.3743 10.6772C52.4429 10.6772 54.2766 12.0676 54.2766 15.5823V22.2443H51.119V16.0462C51.119 14.2654 50.4992 13.2343 49.2066 13.2343C48.2582 13.2343 47.5703 13.8526 47.3116 14.6126C47.221 14.8764 47.1792 15.2333 47.1792 15.53V22.2443H44.0241V15.7975C44.0241 14.2825 43.4274 13.2343 42.1529 13.2343C41.1345 13.2343 40.4959 14.0168 40.2335 14.6849C40.1211 14.9695 40.0848 15.2996 40.0848 15.6102V22.2443H36.926ZM94.5112 9.91402C94.8257 10.1934 94.849 10.8253 94.5512 11.3859L94.553 11.3833C94.2552 11.9419 93.739 12.2362 93.3577 12.0826L87.2943 9.01639C86.725 8.65863 86.6409 7.63981 87.1255 6.72856C87.6112 5.81538 88.4651 5.38504 89.0344 5.7415L94.5112 9.91402ZM102.198 11.3833C102.498 11.9419 103.012 12.2362 103.392 12.0826L109.458 9.01635C110.029 8.65859 110.111 7.63975 109.625 6.7285C109.14 5.81595 108.286 5.38495 107.716 5.74141L102.239 9.91399C101.926 10.1933 101.905 10.8252 102.2 11.3859L102.198 11.3833ZM99.9331 18.6256C99.8643 18.2209 99.354 17.9072 98.7369 17.9066C98.1185 17.9072 97.6081 18.2209 97.5412 18.6256L96.9301 25.3678C96.9301 26.0337 97.7309 26.5819 98.7362 26.5819C99.744 26.5819 100.545 26.0337 100.545 25.3678L99.9331 18.6256ZM102.198 15.0321C102.498 14.4709 103.012 14.1793 103.392 14.3322L109.458 17.3976C110.029 17.756 110.111 18.7748 109.625 19.6873C109.14 20.5978 108.286 21.0301 107.716 20.6736L102.239 16.5013C101.926 16.2207 101.905 15.5895 102.2 15.0295L102.198 15.0321ZM94.5112 16.5024C94.8257 16.2211 94.849 15.5904 94.5512 15.0304L94.553 15.0323C94.2552 14.471 93.739 14.1781 93.3577 14.333L87.2943 17.3975C86.725 17.7559 86.6409 18.7762 87.1255 19.6888C87.6112 20.5995 88.4651 21.0298 89.0344 20.6733L94.5112 16.5024Z" fill="#808991"/>
</svg>
