<svg width="40" height="41" viewBox="0 0 40 41" fill="none" xmlns="http://www.w3.org/2000/svg">
<ellipse cx="20" cy="20.3394" rx="20" ry="20" fill="#0976B4"/>
<path fill-rule="evenodd" clip-rule="evenodd" d="M12.2088 15.1776C13.5857 15.1776 14.7019 14.1597 14.7019 12.9026C14.7019 11.6444 13.5857 10.6251 12.2088 10.6251C10.8306 10.6251 9.71436 11.6444 9.71436 12.9026C9.71436 14.1597 10.8306 15.1776 12.2088 15.1776Z" fill="white"/>
<path fill-rule="evenodd" clip-rule="evenodd" d="M10.2856 29.8124H14.759V16.9109H10.2856V29.8124Z" fill="white"/>
<path fill-rule="evenodd" clip-rule="evenodd" d="M21.0373 22.6367C21.0373 21.1572 21.7373 19.7104 23.4111 19.7104C25.0848 19.7104 25.4964 21.1572 25.4964 22.6014V29.6475H29.9497V22.3133C29.9497 17.2178 26.9377 16.3394 25.0848 16.3394C23.2335 16.3394 22.2124 16.9656 21.0373 18.4829V16.746H16.5713V29.6475H21.0373V22.6367Z" fill="white"/>
</svg>
