<svg width="24" height="25" viewBox="0 0 24 25" fill="none" xmlns="http://www.w3.org/2000/svg">
<path d="M2 7.33936L10.1649 13.0548C10.8261 13.5176 11.1567 13.749 11.5163 13.8387C11.8339 13.9178 12.1661 13.9178 12.4837 13.8387C12.8433 13.749 13.1739 13.5176 13.8351 13.0548L22 7.33936M6.8 20.3394H17.2C18.8802 20.3394 19.7202 20.3394 20.362 20.0124C20.9265 19.7248 21.3854 19.2658 21.673 18.7013C22 18.0596 22 17.2195 22 15.5394V9.13936C22 7.4592 22 6.61912 21.673 5.97738C21.3854 5.4129 20.9265 4.95396 20.362 4.66634C19.7202 4.33936 18.8802 4.33936 17.2 4.33936H6.8C5.11984 4.33936 4.27976 4.33936 3.63803 4.66634C3.07354 4.95396 2.6146 5.4129 2.32698 5.97738C2 6.61912 2 7.4592 2 9.13936V15.5394C2 17.2195 2 18.0596 2.32698 18.7013C2.6146 19.2658 3.07354 19.7248 3.63803 20.0124C4.27976 20.3394 5.11984 20.3394 6.8 20.3394Z" stroke="#004642" stroke-width="2" stroke-linecap="round" stroke-linejoin="round"/>
</svg>
