<svg width="24" height="25" viewBox="0 0 24 25" fill="none" xmlns="http://www.w3.org/2000/svg">
<path d="M8.37658 15.9557L2.71973 21.6125M11.6943 6.98117L10.1334 8.54206C10.0061 8.66938 9.9424 8.73304 9.86986 8.78363C9.80548 8.82853 9.73604 8.86569 9.66297 8.89435C9.58065 8.92664 9.49236 8.9443 9.3158 8.97961L5.65133 9.71251C4.69903 9.90297 4.22288 9.9982 4.00012 10.2493C3.80605 10.468 3.71743 10.7607 3.75758 11.0503C3.80367 11.3827 4.14703 11.7261 4.83375 12.4128L11.9195 19.4985C12.6062 20.1853 12.9496 20.5286 13.282 20.5747C13.5716 20.6149 13.8643 20.5262 14.083 20.3322C14.3341 20.1094 14.4293 19.6333 14.6198 18.681L15.3527 15.0165C15.388 14.8399 15.4056 14.7516 15.4379 14.6693C15.4666 14.5963 15.5038 14.5268 15.5487 14.4624C15.5992 14.3899 15.6629 14.3262 15.7902 14.1989L17.3511 12.638C17.4325 12.5566 17.4732 12.5159 17.518 12.4804C17.5577 12.4488 17.5998 12.4203 17.6439 12.3951C17.6935 12.3668 17.7464 12.3441 17.8522 12.2988L20.3466 11.2298C21.0743 10.9179 21.4381 10.7619 21.6034 10.51C21.7479 10.2896 21.7996 10.0211 21.7473 9.76283C21.6874 9.46749 21.4075 9.18758 20.8477 8.62775L15.7045 3.48461C15.1447 2.92479 14.8648 2.64487 14.5695 2.585C14.3112 2.53265 14.0427 2.58435 13.8223 2.72889C13.5703 2.89416 13.4144 3.25801 13.1025 3.98571L12.0335 6.48007C11.9882 6.58589 11.9655 6.63879 11.9372 6.68841C11.912 6.73248 11.8835 6.77457 11.8519 6.81432C11.8164 6.85906 11.7757 6.89976 11.6943 6.98117Z" stroke="#004642" stroke-width="2" stroke-linecap="round" stroke-linejoin="round"/>
</svg>
