<svg width="40" height="41" viewBox="0 0 40 41" fill="none" xmlns="http://www.w3.org/2000/svg">
<ellipse cx="20" cy="20.3394" rx="20" ry="20" fill="#55ACEE"/>
<path fill-rule="evenodd" clip-rule="evenodd" d="M29.1611 12.6897C28.5966 13.0513 27.3005 13.5767 26.6613 13.5767V13.5778C25.9315 12.8154 24.9039 12.3394 23.7643 12.3394C21.551 12.3394 19.7562 14.1341 19.7562 16.3466C19.7562 16.654 19.7918 16.9539 19.8577 17.2414H19.857C16.8547 17.1626 13.571 15.6578 11.5943 13.0822C10.3789 15.1859 11.4306 17.5255 12.8098 18.378C12.3377 18.4136 11.4686 18.3236 11.0595 17.9244C11.0321 19.3207 11.7035 21.1707 14.1515 21.8419C13.68 22.0955 12.8455 22.0228 12.4826 21.9688C12.6099 23.1475 14.2605 24.6884 16.0654 24.6884C15.4221 25.4325 13.0018 26.7821 10.2856 26.3528C12.1303 27.4751 14.2802 28.1251 16.5557 28.1251C23.0222 28.1251 28.044 22.8843 27.7737 16.4191C27.7727 16.412 27.7727 16.4049 27.772 16.3971C27.7727 16.3805 27.7737 16.3639 27.7737 16.3466C27.7737 16.3265 27.772 16.3075 27.7714 16.2881C28.36 15.8855 29.1499 15.1733 29.7142 14.236C29.3869 14.4163 28.4052 14.7772 27.4916 14.8668C28.0779 14.5503 28.9466 13.5139 29.1611 12.6897Z" fill="white"/>
</svg>
