<svg width="24" height="23" viewBox="0 0 24 23" fill="none" xmlns="http://www.w3.org/2000/svg">
<path fill-rule="evenodd" clip-rule="evenodd" d="M6.8285 10.3957C8.1945 13.0803 10.3953 15.2716 13.0799 16.6471L15.1668 14.5601C15.4229 14.304 15.8024 14.2186 16.1344 14.3325C17.1968 14.6834 18.3446 14.8732 19.5209 14.8732C20.0427 14.8732 20.4695 15.3 20.4695 15.8218V19.1324C20.4695 19.6542 20.0427 20.081 19.5209 20.081C10.6135 20.081 3.39453 12.8621 3.39453 3.95465C3.39453 3.43292 3.82141 3.00604 4.34314 3.00604H7.66328C8.18502 3.00604 8.61189 3.43292 8.61189 3.95465C8.61189 5.14042 8.80161 6.27875 9.1526 7.3412C9.25695 7.67321 9.18106 8.04317 8.91545 8.30878L6.8285 10.3957Z" fill="white"/>
</svg>
