<svg width="35" height="32" viewBox="0 0 35 32" fill="none" xmlns="http://www.w3.org/2000/svg">
<rect width="34.1985" height="32" rx="8" fill="#F4F4F4"/>
<path fill-rule="evenodd" clip-rule="evenodd" d="M16.3868 11.3868V9.3335C12.8245 9.66683 9.97461 12.5402 9.97461 16.0002C9.97461 19.4602 12.8245 22.3335 16.3868 22.6668V20.6135C14.2494 20.2935 12.112 18.3468 12.112 16.0002C12.112 13.6535 14.2494 11.7068 16.3868 11.3868ZM22.0652 15.3335H24.224C23.8891 12.0002 21.3741 9.64683 17.8118 9.3335V11.3868C19.9492 11.6735 21.7588 13.3335 22.0652 15.3335ZM17.8118 22.6668V20.6135C19.9492 20.3268 21.7588 18.6668 22.0652 16.6668H24.224C23.8891 20.0002 21.3741 22.3535 17.8118 22.6668Z" fill="#2D2F31"/>
</svg>
