<svg width="108" height="21" viewBox="0 0 108 21" fill="none" xmlns="http://www.w3.org/2000/svg">
<path fill-rule="evenodd" clip-rule="evenodd" d="M9.55838 15.3083L14.4165 18.4356L13.1273 12.5416L17.4195 8.57591L11.7674 8.06449L9.55838 2.50586L7.3494 8.06449L1.69727 8.57591L5.98943 12.5416L4.70021 18.4356L9.55838 15.3083Z" fill="#FFBF1C"/>
<path fill-rule="evenodd" clip-rule="evenodd" d="M31.5696 15.3083L36.4278 18.4356L35.1386 12.5416L39.4307 8.57591L33.7786 8.06449L31.5696 2.50586L29.3606 8.06449L23.7085 8.57591L28.0007 12.5416L26.7114 18.4356L31.5696 15.3083Z" fill="#FFBF1C"/>
<path fill-rule="evenodd" clip-rule="evenodd" d="M53.5799 15.3083L58.438 18.4356L57.1488 12.5416L61.441 8.57591L55.7888 8.06449L53.5799 2.50586L51.3709 8.06449L45.7188 8.57591L50.0109 12.5416L48.7217 18.4356L53.5799 15.3083Z" fill="#FFBF1C"/>
<path fill-rule="evenodd" clip-rule="evenodd" d="M75.5916 15.3083L80.4497 18.4356L79.1605 12.5416L83.4527 8.57591L77.8006 8.06449L75.5916 2.50586L73.3826 8.06449L67.7305 8.57591L72.0226 12.5416L70.7334 18.4356L75.5916 15.3083Z" fill="#FFBF1C"/>
<path fill-rule="evenodd" clip-rule="evenodd" d="M97.6028 15.3083L102.461 18.4356L101.172 12.5416L105.464 8.57591L99.8118 8.06449L97.6028 2.50586L95.3938 8.06449L89.7417 8.57591L94.0339 12.5416L92.7446 18.4356L97.6028 15.3083Z" fill="#FFBF1C"/>
</svg>
